<?xml version="1.0" encoding="UTF-8" standalone="no"?>
<svg
   xmlns:dc="http://purl.org/dc/elements/1.1/"
   xmlns:cc="http://creativecommons.org/ns#"
   xmlns:rdf="http://www.w3.org/1999/02/22-rdf-syntax-ns#"
   xmlns:svg="http://www.w3.org/2000/svg"
   xmlns="http://www.w3.org/2000/svg"
   xmlns:sodipodi="http://sodipodi.sourceforge.net/DTD/sodipodi-0.dtd"
   xmlns:inkscape="http://www.inkscape.org/namespaces/inkscape"
   id="Capa_1"
   enable-background="new 0 0 515.556 515.556"
   height="512"
   viewBox="0 0 515.556 515.556"
   width="512"
   version="1.1"
   sodipodi:docname="add.svg"
   inkscape:version="0.92.4 (f8dce91, 2019-08-02)">
  <metadata
     id="metadata9">
    <rdf:RDF>
      <cc:Work
         rdf:about="">
        <dc:format>image/svg+xml</dc:format>
        <dc:type
           rdf:resource="http://purl.org/dc/dcmitype/StillImage" />
      </cc:Work>
    </rdf:RDF>
  </metadata>
  <defs
     id="defs7" />
  <sodipodi:namedview
     pagecolor="#ffffff"
     bordercolor="#666666"
     borderopacity="1"
     objecttolerance="10"
     gridtolerance="10"
     guidetolerance="10"
     inkscape:pageopacity="0"
     inkscape:pageshadow="2"
     inkscape:window-width="1366"
     inkscape:window-height="713"
     id="namedview5"
     showgrid="false"
     inkscape:zoom="0.4609375"
     inkscape:cx="-111.72881"
     inkscape:cy="256"
     inkscape:window-x="1280"
     inkscape:window-y="300"
     inkscape:window-maximized="1"
     inkscape:current-layer="Capa_1" />
  <path
     d="m257.778 0c-142.137 0-257.778 115.641-257.778 257.778s115.641 257.778 257.778 257.778 257.778-115.641 257.778-257.778-115.642-257.778-257.778-257.778zm128.889 290h-96.667v96.667h-64.444v-96.667h-96.667v-64.444h96.667v-96.667h64.444v96.667h96.667z"
     id="path2"
     style="fill:#00a000;fill-opacity:1" />
  <path
     style="stroke-width:2.16949153;fill:#2ea741;fill-opacity:0"
     d="M 214.60823,507.48342 C 124.58579,492.31761 48.90399,429.46885 16.274511,342.78031 2.4524379,306.05846 -2.1788129,249.14903 5.431752,209.54307 25.994383,102.53355 111.57397,20.212703 219.10962,4.0017156 339.01694,-14.074297 458.00057,58.51837 496.85113,173.45355 c 14.24827,42.15192 17.40571,90.30045 8.71746,132.93439 -18.16698,89.14692 -82.88755,162.45931 -168.84263,191.2569 -36.88281,12.35688 -84.43054,16.18762 -122.11773,9.83858 z M 288.54237,337.13898 V 289.41017 H 336.27119 384 V 255.78305 222.15593 H 336.27119 288.54237 V 174.42712 126.69831 H 256 223.45763 v 47.72881 47.72881 H 175.72881 128 v 33.62712 33.62712 h 47.72881 47.72882 v 47.72881 47.72882 H 256 288.54237 Z"
     id="path3714"
     inkscape:connector-curvature="0"
     transform="scale(1.0069453)" />
  <path
     style="fill:#2ea741;fill-opacity:0;stroke-width:2.16949153"
     d="M 213.10213,507.18696 C 90.249539,485.01417 1.4807999,380.09806 1.5273682,257.12599 1.5536718,187.66689 27.794196,124.17622 76.491589,75.745141 176.75181,-23.966785 335.53833,-23.620172 435.68772,76.529224 c 86.7064,86.706406 99.76654,218.343706 31.88268,321.355526 -12.36506,18.76362 -40.24322,47.72139 -60.43601,62.77645 -54.55618,40.67523 -128.37501,58.37578 -194.03226,46.52576 z m 76.45882,-170.59035 0.58468,-47.18644 h 47.68651 47.6865 v -33.62712 -33.62712 h -47.6865 -47.68651 l -0.58468,-47.18644 -0.58468,-47.18644 -33.08474,-0.59888 -33.08475,-0.59888 v 47.78532 47.78532 h -47.72881 -47.72882 v 33.62712 33.62712 h 47.72882 47.72881 v 47.78533 47.78531 l 33.08475,-0.59887 33.08474,-0.59889 z"
     id="path4521"
     inkscape:connector-curvature="0"
     transform="scale(1.0069453)" />
  <path
     style="fill:#2ea741;fill-opacity:0;stroke-width:2.16949153"
     d="M 213.10213,507.18696 C 90.249539,485.01417 1.4807999,380.09806 1.5273682,257.12599 1.5536718,187.66689 27.794196,124.17622 76.491589,75.745141 176.75181,-23.966785 335.53833,-23.620172 435.68772,76.529224 c 86.7064,86.706406 99.76654,218.343706 31.88268,321.355526 -12.36506,18.76362 -40.24322,47.72139 -60.43601,62.77645 -54.55618,40.67523 -128.37501,58.37578 -194.03226,46.52576 z m 76.45882,-170.59035 0.58468,-47.18644 h 47.68651 47.6865 v -33.62712 -33.62712 h -47.6865 -47.68651 l -0.58468,-47.18644 -0.58468,-47.18644 -33.08474,-0.59888 -33.08475,-0.59888 v 47.78532 47.78532 h -47.72881 -47.72882 v 33.62712 33.62712 h 47.72882 47.72881 v 47.78533 47.78531 l 33.08475,-0.59887 33.08474,-0.59889 z"
     id="path4523"
     inkscape:connector-curvature="0"
     transform="scale(1.0069453)" />
  <path
     style="fill:#2ea741;fill-opacity:0;stroke-width:2.16949153"
     d="M 213.10213,507.18696 C 90.249539,485.01417 1.4807999,380.09806 1.5273682,257.12599 1.5536718,187.66689 27.794196,124.17622 76.491589,75.745141 176.75181,-23.966785 335.53833,-23.620172 435.68772,76.529224 c 86.7064,86.706406 99.76654,218.343706 31.88268,321.355526 -12.36506,18.76362 -40.24322,47.72139 -60.43601,62.77645 -54.55618,40.67523 -128.37501,58.37578 -194.03226,46.52576 z m 76.45882,-170.59035 0.58468,-47.18644 h 47.68651 47.6865 v -33.62712 -33.62712 h -47.6865 -47.68651 l -0.58468,-47.18644 -0.58468,-47.18644 -33.08474,-0.59888 -33.08475,-0.59888 v 47.78532 47.78532 h -47.72881 -47.72882 v 33.62712 33.62712 h 47.72882 47.72881 v 47.78533 47.78531 l 33.08475,-0.59887 33.08474,-0.59889 z"
     id="path4525"
     inkscape:connector-curvature="0"
     transform="scale(1.0069453)" />
</svg>
