<?xml version="1.0" encoding="UTF-8" standalone="no"?>
<!-- Generator: Adobe Illustrator 19.0.0, SVG Export Plug-In . SVG Version: 6.00 Build 0)  -->

<svg
   xmlns:dc="http://purl.org/dc/elements/1.1/"
   xmlns:cc="http://creativecommons.org/ns#"
   xmlns:rdf="http://www.w3.org/1999/02/22-rdf-syntax-ns#"
   xmlns:svg="http://www.w3.org/2000/svg"
   xmlns="http://www.w3.org/2000/svg"
   xmlns:sodipodi="http://sodipodi.sourceforge.net/DTD/sodipodi-0.dtd"
   xmlns:inkscape="http://www.inkscape.org/namespaces/inkscape"
   version="1.1"
   id="Capa_1"
   x="0px"
   y="0px"
   viewBox="0 0 512 512"
   style="enable-background:new 0 0 512 512;"
   xml:space="preserve"
   sodipodi:docname="settings.svg"
   inkscape:version="0.92.4 (f8dce91, 2019-08-02)"><metadata
   id="metadata85"><rdf:RDF><cc:Work
       rdf:about=""><dc:format>image/svg+xml</dc:format><dc:type
         rdf:resource="http://purl.org/dc/dcmitype/StillImage" /></cc:Work></rdf:RDF></metadata><defs
   id="defs83" /><sodipodi:namedview
   pagecolor="#ffffff"
   bordercolor="#666666"
   borderopacity="1"
   objecttolerance="10"
   gridtolerance="10"
   guidetolerance="10"
   inkscape:pageopacity="0"
   inkscape:pageshadow="2"
   inkscape:window-width="746"
   inkscape:window-height="480"
   id="namedview81"
   showgrid="false"
   inkscape:zoom="0.4609375"
   inkscape:cx="256"
   inkscape:cy="256"
   inkscape:window-x="0"
   inkscape:window-y="0"
   inkscape:window-maximized="0"
   inkscape:current-layer="Capa_1" />
<g
   id="g6"
   style="fill:#00a000;fill-opacity:1">
	<g
   id="g4"
   style="fill:#00a000;fill-opacity:1">
		<path
   d="M314.183,38.837L299.418,8.291C296.869,3.208,291.684,0,286,0h-60c-5.684,0-10.869,3.208-13.418,8.291l-14.78,30.546    c-20.947,5.596-40.693,14.048-58.916,25.166l-24.668-12.334c-5.815-2.9-12.744-1.772-17.314,2.813L54.481,96.903    c-4.57,4.57-5.698,11.543-2.813,17.314l12.334,24.668c-11.118,18.223-19.57,37.969-25.166,58.916L8.29,212.581    C3.208,215.131,0,220.316,0,226v60c0,5.684,3.208,10.869,8.291,13.418l30.561,14.78c2.905,10.818,6.771,21.327,11.268,31.588    l11.202-22.388l33.453-33.453C70.338,173.418,172.918,70.219,289.951,94.779l48.065-48.063    C330.234,43.676,322.293,41.005,314.183,38.837z"
   id="path2"
   style="fill:#00a000;fill-opacity:1" />
	</g>
</g>
<g
   id="g12"
   style="fill:#00a000;fill-opacity:1">
	<g
   id="g10"
   style="fill:#00a000;fill-opacity:1">
		<path
   d="M121.654,263.068l141.42-141.412C182.648,117.501,117.468,182.086,121.654,263.068z"
   id="path8"
   style="fill:#00a000;fill-opacity:1" />
	</g>
</g>
<g
   id="g18"
   style="fill:#00a000;fill-opacity:1">
	<g
   id="g16"
   style="fill:#00a000;fill-opacity:1">
		<path
   d="M390.346,248.932L248.943,390.346C329.308,394.508,394.536,329.956,390.346,248.932z"
   id="path14"
   style="fill:#00a000;fill-opacity:1" />
	</g>
</g>
<g
   id="g24"
   style="fill:#00a000;fill-opacity:1">
	<g
   id="g22"
   style="fill:#00a000;fill-opacity:1">
		<path
   d="M501.746,211.776l-27.016-8.672c-2.399-9.926-5.596-19.651-9.37-29.194l-48.138,48.142    c24.487,116.781-78.353,219.659-195.157,195.174l-33.155,33.159l-22.687,11.371c11.993,5.303,24.23,9.84,36.852,12.916    l8.701,27.074C213.813,507.869,219.54,512,226,512h60c6.46,0,12.188-4.131,14.224-10.254l8.701-27.074    c20.654-5.024,40.562-13.081,59.385-24.009l31.436,10.474c5.332,1.816,11.338,0.396,15.352-3.618l42.422-42.422    c4.014-4.014,5.42-9.961,3.618-15.352l-10.474-31.436c10.928-18.823,18.984-38.73,24.009-59.385l27.074-8.701    C507.869,298.188,512,292.46,512,286v-60C512,219.54,507.869,213.813,501.746,211.776z"
   id="path20"
   style="fill:#00a000;fill-opacity:1" />
	</g>
</g>
<g
   id="g30"
   style="fill:#00a000;fill-opacity:1">
	<g
   id="g28"
   style="fill:#00a000;fill-opacity:1">
		<path
   d="M75.369,436.629c-8.237-8.237-19.315-12.67-30.662-12.992l-23.553,47.071c-6.453,12.898,7.236,26.581,20.132,20.123    l47.036-23.557C88.031,456.121,83.794,445.047,75.369,436.629z"
   id="path26"
   style="fill:#00a000;fill-opacity:1" />
	</g>
</g>
<g
   id="g36"
   style="fill:#00a000;fill-opacity:1">
	<g
   id="g34"
   style="fill:#00a000;fill-opacity:1">
		<rect
   x="347.316"
   y="85.324"
   transform="matrix(0.7071 -0.7071 0.7071 0.7071 4.6468 301.8556)"
   width="38.76"
   height="119.989"
   id="rect32"
   style="fill:#00a000;fill-opacity:1" />
	</g>
</g>
<g
   id="g42"
   style="fill:#00a000;fill-opacity:1">
	<g
   id="g40"
   style="fill:#00a000;fill-opacity:1">
		<path
   d="M494.404,16.832c-22.443-22.443-62.401-22.443-84.844,0L359.181,67.97l84.847,84.847l50.376-51.141    C517.865,78.244,517.865,40.264,494.404,16.832z"
   id="path38"
   style="fill:#00a000;fill-opacity:1" />
	</g>
</g>
<g
   id="g48"
   style="fill:#00a000;fill-opacity:1">
	<g
   id="g46"
   style="fill:#00a000;fill-opacity:1">
		<path
   d="M289.353,137.8L85.976,341.166L58.81,395.457c14.046,2.944,27.292,9.49,37.771,19.962    c10.629,10.618,17.335,23.774,20.202,37.603l54.197-27.144l0.147-0.147L374.2,222.647L289.353,137.8z"
   id="path44"
   style="fill:#00a000;fill-opacity:1" />
	</g>
</g>
<g
   id="g50">
</g>
<g
   id="g52">
</g>
<g
   id="g54">
</g>
<g
   id="g56">
</g>
<g
   id="g58">
</g>
<g
   id="g60">
</g>
<g
   id="g62">
</g>
<g
   id="g64">
</g>
<g
   id="g66">
</g>
<g
   id="g68">
</g>
<g
   id="g70">
</g>
<g
   id="g72">
</g>
<g
   id="g74">
</g>
<g
   id="g76">
</g>
<g
   id="g78">
</g>
</svg>